# xmcd
#
# Track frame offsets:
#	150
#	20726
#	40403
#	58091
#	78375
#	96647
#	112637
#	133779
#	152938
#	171993
#
# Disc length: 2525 seconds
#
# Revision: 4
# Processed by: cddbd v1.5.2PL0 Copyright (c) Steve Scherf et al.
# Submitted via: Jack! The Knife
#
DISCID=8809db0a
DTITLE=Queensryche - Tribe
DYEAR=2003
DGENRE=Heavy Metal
TTITLE0=Open
TTITLE1=Losing Myself
TTITLE2=Desert Dance
TTITLE3=Falling Behind
TTITLE4=The Great Divide
TTITLE5=Rhythm of Hope
TTITLE6=Tribe
TTITLE7=Blood
TTITLE8=The Art of Life
TTITLE9=Doin' Fine
EXTD=
EXTT0=DeGarmo - Tate - Wilton
EXTT1=Stone - Tate
EXTT2=DeGarmo - Tate - Rockenfield - Wilton
EXTT3=DeGarmo - Tate
EXTT4=Tate - Wilton
EXTT5=Jackson - Rockenfield - Tate
EXTT6=Jackson - Rockenfield - Tate - Wilton
EXTT7=Tate - Wilton
EXTT8=DeGarmo - Tate
EXTT9=DeGarmo - Tate
PLAYORDER=
